<?xml version="1.0" encoding="iso-8859-1"?>
<!-- Generator: Adobe Illustrator 21.0.2, SVG Export Plug-In . SVG Version: 6.00 Build 0)  -->
<svg version="1.1" id="Layer_1" xmlns="http://www.w3.org/2000/svg" xmlns:xlink="http://www.w3.org/1999/xlink" x="0px" y="0px"
	 viewBox="0 0 300 82" style="enable-background:new 0 0 300 82;" xml:space="preserve">
<g>
	<path style="fill-rule:evenodd;clip-rule:evenodd;fill:#F06697;" d="M41.751,0.088c-5.337,0-9.663,5.191-9.663,11.596
		c0.153,7.586,5.497,17.002,9.662,23.221c4.164-6.219,9.51-15.635,9.665-23.221C51.414,5.279,47.087,0.088,41.751,0.088"/>
	<path style="fill-rule:evenodd;clip-rule:evenodd;fill:#FFCD05;" d="M75.061,16.141c-3.328-4.171-10.081-4.318-15.088-0.326
		c-5.833,4.85-9.859,14.898-12.125,22.027c7.457-0.623,18.145-2.312,24.173-6.921C77.026,26.93,78.388,20.312,75.061,16.141"/>
	<path style="fill-rule:evenodd;clip-rule:evenodd;fill:#B7D033;" d="M83.291,52.187c1.187-5.201-2.91-10.573-9.154-12
		c-7.43-1.538-17.794,1.578-24.783,4.252c5.136,5.443,13.124,12.748,20.484,14.588C76.081,60.451,82.104,57.388,83.291,52.187"/>
	<path style="fill-rule:evenodd;clip-rule:evenodd;fill:#49C2C6;" d="M60.239,81.097c4.808-2.316,6.453-8.868,3.674-14.639
		c-3.429-6.767-12.328-12.93-18.776-16.725c-1.055,7.409-1.785,18.208,1.367,25.11C49.283,80.612,55.431,83.413,60.239,81.097"/>
	<path style="fill-rule:evenodd;clip-rule:evenodd;fill:#F06697;" d="M23.262,81.099c4.808,2.316,10.958-0.483,13.736-6.254
		c3.153-6.901,2.423-17.7,1.37-25.11c-6.45,3.795-15.349,9.958-18.78,16.725C16.81,72.231,18.454,78.783,23.262,81.099"/>
	<path style="fill-rule:evenodd;clip-rule:evenodd;fill:#B7D033;" d="M0.205,52.189c1.187,5.203,7.212,8.266,13.453,6.841
		c7.362-1.838,15.351-9.145,20.487-14.588c-6.99-2.674-17.355-5.792-24.787-4.254C3.116,41.615-0.982,46.987,0.205,52.189"/>
	<path style="fill-rule:evenodd;clip-rule:evenodd;fill:#49C2C6;" d="M8.432,16.136c-3.328,4.171-1.967,10.79,3.041,14.785
		c6.028,4.607,16.72,6.298,24.178,6.922c-2.266-7.131-6.295-17.182-12.129-22.034C18.515,11.819,11.758,11.963,8.432,16.136"/>
	<path style="fill-rule:evenodd;clip-rule:evenodd;fill:#0F1131;" d="M218.678,62.166l-8.505-12.362h2.806l6.896,10.228
		l6.956-10.228h2.688l-8.505,12.332v8.124h-2.337V62.166z M149.751,62.778l-4.646-10.432l-4.677,10.432H149.751z M144.052,49.659
		h2.162l9.323,20.6h-2.485l-2.395-5.406h-11.134l-2.427,5.406h-2.367L144.052,49.659z M177.48,51.938h-7.42v-2.134h17.177v2.134
		h-7.42v18.321h-2.337V51.938z M158.725,49.804h2.307v18.323h12.067v2.132h-14.374V49.804z M117.059,49.804h15.337v2.104h-13.03
		v6.982h11.716v2.106h-11.716v7.159h13.177v2.104h-15.483V49.804z M93.743,49.804h2.309v9.087h12.912v-9.087h2.309v20.455h-2.309
		v-9.205H96.052v9.205h-2.309V49.804z M190.132,49.804h2.31v9.087h12.908v-9.087h2.309v20.455h-2.309v-9.205h-12.908v9.205h-2.31
		V49.804z M93.743,11.742h1.967v12.633c0.695-1.205,1.631-2.22,2.808-3.049c1.176-0.827,2.7-1.243,4.571-1.243
		c1.284,0,2.434,0.213,3.45,0.642c1.018,0.402,1.873,0.975,2.568,1.725c0.721,0.75,1.256,1.645,1.603,2.688
		c0.376,1.016,0.563,2.138,0.563,3.369v12.513h-1.967V28.867c0-2.111-0.561-3.797-1.684-5.053c-1.122-1.286-2.727-1.926-4.813-1.926
		c-1.016,0-1.952,0.187-2.808,0.561c-0.855,0.347-1.603,0.843-2.245,1.485c-0.642,0.64-1.15,1.418-1.524,2.325
		c-0.347,0.884-0.522,1.859-0.522,2.928v11.833h-1.967V11.742z M194.903,47.557c-0.776,0-1.471-0.079-2.086-0.24
		c-0.616-0.132-1.27-0.347-1.965-0.642l0.681-1.725c0.536,0.268,1.056,0.455,1.564,0.561c0.51,0.136,1.15,0.203,1.926,0.203
		c0.534,0,1.028-0.081,1.485-0.242c0.455-0.161,0.882-0.441,1.28-0.843c0.402-0.374,0.79-0.869,1.164-1.483
		c0.374-0.616,0.748-1.363,1.123-2.245l-9.827-20.337h2.288l8.503,18.291l7.379-18.291h2.166l-8.864,21.178
		c-0.908,2.139-1.912,3.637-3.007,4.492C197.644,47.116,196.374,47.557,194.903,47.557 M167.7,20.564h1.965v4.573
		c0.429-0.668,0.922-1.312,1.483-1.924c0.563-0.616,1.178-1.152,1.847-1.605c0.695-0.455,1.457-0.815,2.288-1.085
		c0.854-0.295,1.79-0.441,2.806-0.441c1.231,0,2.434,0.242,3.61,0.723c1.203,0.482,2.273,1.176,3.208,2.085
		c0.937,0.91,1.686,2.034,2.247,3.369c0.587,1.31,0.882,2.795,0.882,4.453c0,1.739-0.295,3.236-0.882,4.573
		c-0.561,1.31-1.31,2.432-2.247,3.369c-0.935,0.908-2.005,1.619-3.208,2.127c-1.176,0.48-2.379,0.72-3.61,0.72
		c-1.016,0-1.952-0.132-2.806-0.4c-0.857-0.266-1.631-0.628-2.328-1.083c-0.668-0.455-1.284-0.977-1.845-1.564
		c-0.534-0.589-1.016-1.203-1.444-1.845v10.829H167.7V20.564z M177.887,39.617c1.123,0,2.166-0.201,3.129-0.601
		c0.991-0.402,1.845-0.977,2.568-1.725c0.721-0.75,1.284-1.658,1.684-2.728c0.427-1.097,0.642-2.326,0.642-3.688
		c0-1.418-0.215-2.637-0.642-3.732c-0.429-1.097-1.016-2.019-1.764-2.767c-0.723-0.774-1.579-1.363-2.568-1.765
		c-0.963-0.427-1.979-0.64-3.049-0.64c-1.069,0-2.111,0.213-3.127,0.64c-0.989,0.429-1.873,1.03-2.649,1.804
		c-0.774,0.776-1.402,1.698-1.884,2.769c-0.455,1.069-0.683,2.259-0.683,3.57c0,1.39,0.228,2.594,0.683,3.69
		c0.481,1.069,1.109,1.993,1.884,2.767c0.776,0.75,1.66,1.337,2.649,1.765C175.776,39.402,176.818,39.617,177.887,39.617
		 M141.576,20.564h1.965v4.573c0.429-0.668,0.922-1.312,1.485-1.924c0.561-0.616,1.176-1.152,1.845-1.605
		c0.695-0.455,1.457-0.815,2.288-1.085c0.854-0.295,1.79-0.441,2.806-0.441c1.231,0,2.434,0.242,3.61,0.723
		c1.203,0.482,2.273,1.176,3.21,2.085c0.935,0.91,1.684,2.034,2.243,3.369c0.589,1.31,0.882,2.795,0.882,4.453
		c0,1.739-0.293,3.236-0.882,4.573c-0.559,1.31-1.309,2.432-2.243,3.369c-0.937,0.908-2.007,1.619-3.21,2.127
		c-1.176,0.48-2.379,0.72-3.61,0.72c-1.016,0-1.952-0.132-2.806-0.4c-0.857-0.266-1.631-0.628-2.328-1.083
		c-0.668-0.455-1.284-0.977-1.845-1.564c-0.534-0.589-1.016-1.203-1.444-1.845v10.829h-1.965V20.564z M151.765,39.617
		c1.122,0,2.166-0.201,3.129-0.601c0.989-0.402,1.843-0.977,2.566-1.725c0.721-0.75,1.284-1.658,1.684-2.728
		c0.429-1.097,0.642-2.326,0.642-3.688c0-1.418-0.213-2.637-0.642-3.732c-0.429-1.097-1.016-2.019-1.764-2.767
		c-0.723-0.774-1.579-1.363-2.568-1.765c-0.963-0.427-1.979-0.64-3.048-0.64c-1.071,0-2.113,0.213-3.129,0.64
		c-0.989,0.429-1.873,1.03-2.647,1.804c-0.776,0.776-1.404,1.698-1.885,2.769c-0.455,1.069-0.683,2.259-0.683,3.57
		c0,1.39,0.228,2.594,0.683,3.69c0.481,1.069,1.109,1.993,1.885,2.767c0.774,0.75,1.658,1.337,2.647,1.765
		C149.652,39.402,150.694,39.617,151.765,39.617 M124.502,41.501c-0.961,0-1.91-0.132-2.847-0.4
		c-0.935-0.266-1.778-0.668-2.526-1.203c-0.75-0.534-1.365-1.205-1.847-2.005c-0.455-0.802-0.681-1.737-0.681-2.808
		c0-1.15,0.213-2.099,0.64-2.928c0.455-0.829,1.071-1.524,1.847-2.086c0.776-0.561,1.711-0.989,2.808-1.284
		c1.097-0.293,2.31-0.441,3.647-0.441c1.444,0,2.688,0.081,3.73,0.242c1.042,0.159,2.06,0.374,3.049,0.642v-0.884
		c0-2.086-0.601-3.649-1.806-4.691c-1.176-1.044-2.82-1.564-4.933-1.564c-1.258,0-2.404,0.161-3.448,0.482
		c-1.042,0.295-2.032,0.681-2.968,1.162l-0.721-1.725c1.123-0.536,2.259-0.963,3.409-1.284c1.15-0.321,2.432-0.482,3.85-0.482
		c2.806,0,4.959,0.75,6.457,2.247c1.39,1.392,2.085,3.316,2.085,5.776v12.753h-1.924v-3.407c-0.347,0.48-0.776,0.963-1.284,1.443
		c-0.482,0.455-1.042,0.869-1.684,1.243c-0.642,0.349-1.377,0.63-2.206,0.843C126.347,41.382,125.463,41.501,124.502,41.501
		 M124.622,39.656c1.044,0,2.034-0.146,2.97-0.441c0.935-0.321,1.75-0.748,2.444-1.284c0.723-0.561,1.284-1.229,1.686-2.004
		c0.427-0.778,0.642-1.631,0.642-2.568v-2.326c-0.857-0.213-1.859-0.414-3.009-0.601c-1.15-0.215-2.46-0.321-3.931-0.321
		c-2.164,0-3.836,0.441-5.012,1.323c-1.15,0.855-1.723,2.007-1.723,3.45c0,0.831,0.16,1.499,0.48,2.086
		c0.321,0.561,0.748,1.042,1.284,1.444c0.563,0.4,1.203,0.707,1.924,0.921C123.1,39.55,123.846,39.656,124.622,39.656
		 M239.549,76.797c-0.776,0-1.471-0.079-2.086-0.24c-0.614-0.134-1.27-0.347-1.965-0.642l0.683-1.725
		c0.534,0.266,1.055,0.455,1.564,0.561c0.508,0.134,1.148,0.201,1.924,0.201c0.536,0,1.03-0.079,1.485-0.242
		c0.453-0.16,0.882-0.441,1.282-0.843c0.402-0.372,0.79-0.868,1.164-1.481c0.374-0.616,0.75-1.365,1.123-2.247l-9.826-20.335h2.284
		l8.505,18.29l7.379-18.29h2.168l-8.866,21.178c-0.908,2.138-1.912,3.635-3.007,4.492C242.29,76.356,241.02,76.797,239.549,76.797
		 M266.941,68.896c1.203,0,2.312-0.228,3.328-0.683c1.044-0.48,1.924-1.109,2.646-1.885c0.75-0.801,1.325-1.737,1.725-2.808
		c0.429-1.069,0.642-2.206,0.642-3.407c0-1.312-0.213-2.462-0.642-3.531c-0.429-1.097-1.03-2.046-1.806-2.848
		c-0.746-0.803-1.642-1.429-2.684-1.884c-1.016-0.455-2.113-0.683-3.289-0.683c-1.203,0-2.326,0.242-3.369,0.721
		c-1.018,0.455-1.9,1.083-2.647,1.885c-0.723,0.774-1.298,1.698-1.725,2.767c-0.4,1.071-0.601,2.206-0.601,3.411
		c0,1.309,0.213,2.473,0.642,3.568c0.427,1.071,1.016,2.007,1.764,2.808c0.776,0.802,1.672,1.432,2.688,1.885
		C264.654,68.669,265.763,68.896,266.941,68.896 M266.86,70.741c-1.524,0-2.928-0.28-4.212-0.843
		c-1.256-0.589-2.353-1.363-3.289-2.326c-0.935-0.961-1.67-2.085-2.206-3.369c-0.508-1.284-0.762-2.647-0.762-4.09
		c0-1.526,0.254-2.889,0.762-4.173c0.536-1.284,1.272-2.422,2.206-3.407c0.963-0.989,2.086-1.765,3.37-2.328
		c1.282-0.587,2.686-0.882,4.212-0.882c1.524,0,2.915,0.295,4.171,0.882c1.28,0.563,2.392,1.325,3.328,2.286
		c0.935,0.963,1.658,2.086,2.166,3.369c0.534,1.284,0.801,2.647,0.801,4.094c0,1.522-0.266,2.887-0.801,4.169
		c-0.508,1.286-1.243,2.42-2.206,3.411c-0.937,0.989-2.046,1.776-3.328,2.365C269.788,70.46,268.386,70.741,266.86,70.741
		 M290.654,70.741c-1.284,0-2.434-0.201-3.45-0.601c-1.016-0.429-1.885-1.016-2.608-1.765c-0.695-0.75-1.228-1.631-1.603-2.647
		c-0.347-1.042-0.522-2.178-0.522-3.409V49.804h1.967v12.154c0,2.111,0.561,3.81,1.684,5.094c1.123,1.256,2.728,1.885,4.813,1.885
		c0.989,0,1.912-0.175,2.769-0.52c0.882-0.376,1.644-0.884,2.286-1.527c0.642-0.64,1.136-1.402,1.483-2.284
		c0.376-0.91,0.563-1.9,0.563-2.97V49.804H300v20.457h-1.965v-3.813c-0.695,1.205-1.631,2.22-2.81,3.049
		C294.049,70.326,292.527,70.741,290.654,70.741"/>
</g>
<g>
</g>
<g>
</g>
<g>
</g>
<g>
</g>
<g>
</g>
<g>
</g>
</svg>
